<svg width="21" height="20" viewBox="0 0 21 20" fill="none" xmlns="http://www.w3.org/2000/svg">
<path fill-rule="evenodd" clip-rule="evenodd" d="M5.96895 0.0596729C7.03562 0.0116031 7.37645 0 10.0923 0C12.8081 0 13.149 0.0116031 14.2156 0.0596729C15.8406 0.133435 17.2681 0.529597 18.414 1.66918C19.5598 2.80877 19.9581 4.22849 20.0323 5.84463C20.0806 6.90549 20.0923 7.24446 20.0923 9.94549C20.0923 12.6465 20.0806 12.9855 20.0323 14.0463C19.9581 15.6625 19.5598 17.0822 18.414 18.2218C17.2681 19.3614 15.8406 19.7575 14.2156 19.8313C13.149 19.8794 12.8081 19.891 10.0923 19.891C7.37645 19.891 7.03562 19.8794 5.96895 19.8313C4.34395 19.7575 2.91645 19.3614 1.77062 18.2218C0.624785 17.0822 0.226452 15.6625 0.152285 14.0463C0.103952 12.9855 0.0922852 12.6465 0.0922852 9.94549C0.0922852 7.24446 0.103952 6.90549 0.152285 5.84463C0.226452 4.22849 0.624785 2.80877 1.77062 1.66918C2.91645 0.529597 4.34395 0.133435 5.96895 0.0596729ZM14.1322 1.85001C13.0781 1.80194 12.7614 1.79199 10.0914 1.79199C7.4214 1.79199 7.10473 1.80194 6.05057 1.85001C4.91223 1.90139 3.8564 2.12848 3.0439 2.93655C2.2314 3.74462 2.00307 4.7947 1.9514 5.92683C1.90307 6.97525 1.89307 7.29019 1.89307 9.94564C1.89307 12.6011 1.90307 12.916 1.9514 13.9644C2.00307 15.0966 2.2314 16.1467 3.0439 16.9547C3.8564 17.7628 4.91223 17.9899 6.05057 18.0413C7.10473 18.0893 7.4214 18.0993 10.0914 18.0993C12.7614 18.0993 13.0781 18.0893 14.1322 18.0413C15.2706 17.9899 16.3264 17.7628 17.1389 16.9547C17.9514 16.1467 18.1797 15.0966 18.2314 13.9644C18.2797 12.916 18.2897 12.6011 18.2897 9.94564C18.2897 7.29019 18.2797 6.97525 18.2314 5.92683C18.1797 4.7947 17.9514 3.74462 17.1389 2.93655C16.3264 2.12848 15.2706 1.90139 14.1322 1.85001ZM4.95557 9.9449C4.95557 7.12453 7.25473 4.83789 10.0906 4.83789C12.9264 4.83789 15.2256 7.12453 15.2256 9.9449C15.2256 12.7653 12.9264 15.0519 10.0906 15.0519C7.25473 15.0519 4.95557 12.7653 4.95557 9.9449ZM6.75635 9.94504C6.75635 11.7758 8.24885 13.2602 10.0897 13.2602C11.9305 13.2602 13.423 11.7758 13.423 9.94504C13.423 8.11425 11.9305 6.62988 10.0897 6.62988C8.24885 6.62988 6.75635 8.11425 6.75635 9.94504ZM16.629 4.63682C16.629 5.29595 16.0917 5.83028 15.429 5.83028C14.7663 5.83028 14.229 5.29595 14.229 4.63682C14.229 3.97769 14.7663 3.44336 15.429 3.44336C16.0917 3.44336 16.629 3.97769 16.629 4.63682Z" fill="#E9E9DB"/>
</svg>
