<svg width="19" height="20" viewBox="0 0 19 20" fill="none" xmlns="http://www.w3.org/2000/svg">
<path d="M8.06846 0.500257C5.48476 0.501362 3.05782 1.73962 1.54012 3.8309C0.0222471 5.92241 -0.403234 8.61409 0.395667 11.0716C1.19479 13.5293 3.12136 15.456 5.57871 16.2545C8.0359 17.0528 10.7267 16.6263 12.817 15.1073L16.8373 19.1288C17.1573 19.4489 17.6238 19.5739 18.061 19.4569C18.4982 19.3396 18.8396 18.9981 18.9569 18.5607C19.0739 18.1234 18.9489 17.6567 18.629 17.3366L14.6087 13.315C15.7829 11.7006 16.3169 9.70806 16.1078 7.72258C15.8985 5.7371 14.9609 3.89982 13.4759 2.56568C11.9912 1.23155 10.0644 0.495609 8.06875 0.50002L8.06846 0.500257ZM8.06846 14.1164C6.5992 14.1164 5.1902 13.5326 4.15129 12.4934C3.11237 11.4541 2.52878 10.0447 2.52878 8.57496C2.52878 7.10523 3.11237 5.69577 4.15129 4.65652C5.1902 3.61727 6.5992 3.0335 8.06846 3.0335C9.53772 3.0335 10.9467 3.61727 11.9856 4.65652C13.0245 5.69577 13.6081 7.10523 13.6081 8.57496C13.6064 10.044 13.0223 11.4526 11.9837 12.4914C10.9452 13.5304 9.5371 14.1147 8.06846 14.1164Z" fill="#202217"/>
</svg>
